<svg width="646" height="169" viewBox="0 0 646 169" fill="none" xmlns="http://www.w3.org/2000/svg">
<rect y="154" width="442" height="15" rx="5" fill="#EB625B"/>
<rect x="424.824" y="169" width="55" height="17.1762" rx="8.58808" transform="rotate(-90 424.824 169)" fill="#EB625B"/>
<rect x="223" width="423" height="121" rx="10" fill="#EB625B"/>
<path d="M265.801 70.664H276.553V77H257.593V43.304H265.801V70.664ZM292.66 77.384C290.036 77.384 287.668 76.824 285.556 75.704C283.476 74.584 281.828 72.984 280.612 70.904C279.428 68.824 278.836 66.392 278.836 63.608C278.836 60.856 279.444 58.44 280.66 56.36C281.876 54.248 283.54 52.632 285.652 51.512C287.764 50.392 290.132 49.832 292.756 49.832C295.38 49.832 297.748 50.392 299.86 51.512C301.972 52.632 303.636 54.248 304.852 56.36C306.068 58.44 306.676 60.856 306.676 63.608C306.676 66.36 306.052 68.792 304.804 70.904C303.588 72.984 301.908 74.584 299.764 75.704C297.652 76.824 295.284 77.384 292.66 77.384ZM292.66 70.28C294.228 70.28 295.556 69.704 296.644 68.552C297.764 67.4 298.324 65.752 298.324 63.608C298.324 61.464 297.78 59.816 296.692 58.664C295.636 57.512 294.324 56.936 292.756 56.936C291.156 56.936 289.828 57.512 288.772 58.664C287.716 59.784 287.188 61.432 287.188 63.608C287.188 65.752 287.7 67.4 288.724 68.552C289.78 69.704 291.092 70.28 292.66 70.28ZM323.223 77.384C320.599 77.384 318.231 76.824 316.119 75.704C314.039 74.584 312.391 72.984 311.175 70.904C309.991 68.824 309.399 66.392 309.399 63.608C309.399 60.856 310.007 58.44 311.223 56.36C312.439 54.248 314.103 52.632 316.215 51.512C318.327 50.392 320.695 49.832 323.319 49.832C325.943 49.832 328.311 50.392 330.423 51.512C332.535 52.632 334.199 54.248 335.415 56.36C336.631 58.44 337.239 60.856 337.239 63.608C337.239 66.36 336.615 68.792 335.367 70.904C334.151 72.984 332.471 74.584 330.327 75.704C328.215 76.824 325.847 77.384 323.223 77.384ZM323.223 70.28C324.791 70.28 326.119 69.704 327.207 68.552C328.327 67.4 328.887 65.752 328.887 63.608C328.887 61.464 328.343 59.816 327.255 58.664C326.199 57.512 324.887 56.936 323.319 56.936C321.719 56.936 320.391 57.512 319.335 58.664C318.279 59.784 317.751 61.432 317.751 63.608C317.751 65.752 318.263 67.4 319.287 68.552C320.343 69.704 321.655 70.28 323.223 70.28ZM357.961 77L349.801 65.768V77H341.593V41.48H349.801V61.112L357.913 50.216H368.041L356.905 63.656L368.137 77H357.961ZM375.393 47.432C373.953 47.432 372.769 47.016 371.841 46.184C370.945 45.32 370.497 44.264 370.497 43.016C370.497 41.736 370.945 40.68 371.841 39.848C372.769 38.984 373.953 38.552 375.393 38.552C376.801 38.552 377.953 38.984 378.849 39.848C379.777 40.68 380.241 41.736 380.241 43.016C380.241 44.264 379.777 45.32 378.849 46.184C377.953 47.016 376.801 47.432 375.393 47.432ZM379.473 50.216V77H371.265V50.216H379.473ZM401.741 49.928C404.877 49.928 407.373 50.952 409.229 53C411.117 55.016 412.061 57.8 412.061 61.352V77H403.901V62.456C403.901 60.664 403.437 59.272 402.509 58.28C401.581 57.288 400.333 56.792 398.765 56.792C397.197 56.792 395.949 57.288 395.021 58.28C394.093 59.272 393.629 60.664 393.629 62.456V77H385.421V50.216H393.629V53.768C394.461 52.584 395.581 51.656 396.989 50.984C398.397 50.28 399.981 49.928 401.741 49.928ZM427.941 49.832C429.829 49.832 431.477 50.216 432.885 50.984C434.325 51.752 435.429 52.76 436.197 54.008V50.216H444.405V76.952C444.405 79.416 443.909 81.64 442.917 83.624C441.957 85.64 440.469 87.24 438.453 88.424C436.469 89.608 433.989 90.2 431.013 90.2C427.045 90.2 423.829 89.256 421.365 87.368C418.901 85.512 417.493 82.984 417.141 79.784H425.253C425.509 80.808 426.117 81.608 427.077 82.184C428.037 82.792 429.221 83.096 430.629 83.096C432.325 83.096 433.669 82.6 434.661 81.608C435.685 80.648 436.197 79.096 436.197 76.952V73.16C435.397 74.408 434.293 75.432 432.885 76.232C431.477 77 429.829 77.384 427.941 77.384C425.733 77.384 423.733 76.824 421.941 75.704C420.149 74.552 418.725 72.936 417.669 70.856C416.645 68.744 416.133 66.312 416.133 63.56C416.133 60.808 416.645 58.392 417.669 56.312C418.725 54.232 420.149 52.632 421.941 51.512C423.733 50.392 425.733 49.832 427.941 49.832ZM436.197 63.608C436.197 61.56 435.621 59.944 434.469 58.76C433.349 57.576 431.973 56.984 430.341 56.984C428.709 56.984 427.317 57.576 426.165 58.76C425.045 59.912 424.485 61.512 424.485 63.56C424.485 65.608 425.045 67.24 426.165 68.456C427.317 69.64 428.709 70.232 430.341 70.232C431.973 70.232 433.349 69.64 434.469 68.456C435.621 67.272 436.197 65.656 436.197 63.608ZM475.443 70.04V77H471.267C468.291 77 465.971 76.28 464.307 74.84C462.643 73.368 461.811 70.984 461.811 67.688V57.032H458.547V50.216H461.811V43.688H470.019V50.216H475.395V57.032H470.019V67.784C470.019 68.584 470.211 69.16 470.595 69.512C470.979 69.864 471.619 70.04 472.515 70.04H475.443ZM492.207 77.384C489.583 77.384 487.215 76.824 485.103 75.704C483.023 74.584 481.375 72.984 480.159 70.904C478.975 68.824 478.383 66.392 478.383 63.608C478.383 60.856 478.991 58.44 480.207 56.36C481.423 54.248 483.087 52.632 485.199 51.512C487.311 50.392 489.679 49.832 492.303 49.832C494.927 49.832 497.295 50.392 499.407 51.512C501.519 52.632 503.183 54.248 504.399 56.36C505.615 58.44 506.223 60.856 506.223 63.608C506.223 66.36 505.599 68.792 504.351 70.904C503.135 72.984 501.455 74.584 499.311 75.704C497.199 76.824 494.831 77.384 492.207 77.384ZM492.207 70.28C493.775 70.28 495.103 69.704 496.191 68.552C497.311 67.4 497.871 65.752 497.871 63.608C497.871 61.464 497.327 59.816 496.239 58.664C495.183 57.512 493.871 56.936 492.303 56.936C490.703 56.936 489.375 57.512 488.319 58.664C487.263 59.784 486.735 61.432 486.735 63.608C486.735 65.752 487.247 67.4 488.271 68.552C489.327 69.704 490.639 70.28 492.207 70.28ZM537.213 49.928C540.285 49.928 542.749 50.952 544.605 53C546.461 55.016 547.389 57.8 547.389 61.352V77H539.229V62.456C539.229 60.664 538.765 59.272 537.837 58.28C536.909 57.288 535.661 56.792 534.093 56.792C532.525 56.792 531.277 57.288 530.349 58.28C529.421 59.272 528.957 60.664 528.957 62.456V77H520.749V41.48H528.957V53.816C529.789 52.632 530.925 51.688 532.365 50.984C533.805 50.28 535.421 49.928 537.213 49.928ZM557.221 47.432C555.781 47.432 554.597 47.016 553.669 46.184C552.773 45.32 552.325 44.264 552.325 43.016C552.325 41.736 552.773 40.68 553.669 39.848C554.597 38.984 555.781 38.552 557.221 38.552C558.629 38.552 559.781 38.984 560.677 39.848C561.605 40.68 562.069 41.736 562.069 43.016C562.069 44.264 561.605 45.32 560.677 46.184C559.781 47.016 558.629 47.432 557.221 47.432ZM561.301 50.216V77H553.093V50.216H561.301ZM575.457 54.68C576.417 53.208 577.617 52.056 579.057 51.224C580.497 50.36 582.097 49.928 583.857 49.928V58.616H581.601C579.553 58.616 578.017 59.064 576.993 59.96C575.969 60.824 575.457 62.36 575.457 64.568V77H567.249V50.216H575.457V54.68ZM613.029 63.176C613.029 63.944 612.981 64.744 612.885 65.576H594.309C594.437 67.24 594.965 68.52 595.893 69.416C596.853 70.28 598.021 70.712 599.397 70.712C601.445 70.712 602.869 69.848 603.669 68.12H612.405C611.957 69.88 611.141 71.464 609.957 72.872C608.805 74.28 607.349 75.384 605.589 76.184C603.829 76.984 601.861 77.384 599.685 77.384C597.061 77.384 594.725 76.824 592.677 75.704C590.629 74.584 589.029 72.984 587.877 70.904C586.725 68.824 586.149 66.392 586.149 63.608C586.149 60.824 586.709 58.392 587.829 56.312C588.981 54.232 590.581 52.632 592.629 51.512C594.677 50.392 597.029 49.832 599.685 49.832C602.277 49.832 604.581 50.376 606.597 51.464C608.613 52.552 610.181 54.104 611.301 56.12C612.453 58.136 613.029 60.488 613.029 63.176ZM604.629 61.016C604.629 59.608 604.149 58.488 603.189 57.656C602.229 56.824 601.029 56.408 599.589 56.408C598.213 56.408 597.045 56.808 596.085 57.608C595.157 58.408 594.581 59.544 594.357 61.016H604.629Z" fill="white"/>
</svg>
