<svg width="639" height="182" viewBox="0 0 639 182" fill="none" xmlns="http://www.w3.org/2000/svg">
<rect width="337" height="15" rx="5" transform="matrix(-1 0 0 1 639 167)" fill="#5B69EB"/>
<rect width="72" height="14.6948" rx="7.34739" transform="matrix(6.85151e-08 -1 -1 -2.78871e-08 316.695 182)" fill="#5B69EB"/>
<rect width="545" height="121" rx="10" transform="matrix(-1 0 0 1 545 0)" fill="#5B69EB"/>
<path d="M51.3481 74.664H62.1001V81H43.1401V47.304H51.3481V74.664ZM78.2071 81.384C75.5831 81.384 73.2151 80.824 71.1031 79.704C69.0231 78.584 67.3751 76.984 66.1591 74.904C64.9751 72.824 64.3831 70.392 64.3831 67.608C64.3831 64.856 64.9911 62.44 66.2071 60.36C67.4231 58.248 69.0871 56.632 71.1991 55.512C73.3111 54.392 75.6791 53.832 78.3031 53.832C80.9271 53.832 83.2951 54.392 85.4071 55.512C87.5191 56.632 89.1831 58.248 90.3991 60.36C91.6151 62.44 92.2231 64.856 92.2231 67.608C92.2231 70.36 91.5991 72.792 90.3511 74.904C89.1351 76.984 87.4551 78.584 85.3111 79.704C83.1991 80.824 80.8311 81.384 78.2071 81.384ZM78.2071 74.28C79.7751 74.28 81.1031 73.704 82.1911 72.552C83.3111 71.4 83.8711 69.752 83.8711 67.608C83.8711 65.464 83.3271 63.816 82.2391 62.664C81.1831 61.512 79.8711 60.936 78.3031 60.936C76.7031 60.936 75.3751 61.512 74.3191 62.664C73.2631 63.784 72.7351 65.432 72.7351 67.608C72.7351 69.752 73.2471 71.4 74.2711 72.552C75.3271 73.704 76.6391 74.28 78.2071 74.28ZM108.77 81.384C106.146 81.384 103.778 80.824 101.666 79.704C99.5856 78.584 97.9376 76.984 96.7216 74.904C95.5376 72.824 94.9456 70.392 94.9456 67.608C94.9456 64.856 95.5536 62.44 96.7696 60.36C97.9856 58.248 99.6496 56.632 101.762 55.512C103.874 54.392 106.242 53.832 108.866 53.832C111.49 53.832 113.858 54.392 115.97 55.512C118.082 56.632 119.746 58.248 120.962 60.36C122.178 62.44 122.786 64.856 122.786 67.608C122.786 70.36 122.162 72.792 120.914 74.904C119.698 76.984 118.018 78.584 115.874 79.704C113.762 80.824 111.394 81.384 108.77 81.384ZM108.77 74.28C110.338 74.28 111.666 73.704 112.754 72.552C113.874 71.4 114.434 69.752 114.434 67.608C114.434 65.464 113.89 63.816 112.802 62.664C111.746 61.512 110.434 60.936 108.866 60.936C107.266 60.936 105.938 61.512 104.882 62.664C103.826 63.784 103.298 65.432 103.298 67.608C103.298 69.752 103.81 71.4 104.834 72.552C105.89 73.704 107.202 74.28 108.77 74.28ZM143.508 81L135.348 69.768V81H127.14V45.48H135.348V65.112L143.46 54.216H153.588L142.452 67.656L153.684 81H143.508ZM160.94 51.432C159.5 51.432 158.316 51.016 157.388 50.184C156.492 49.32 156.044 48.264 156.044 47.016C156.044 45.736 156.492 44.68 157.388 43.848C158.316 42.984 159.5 42.552 160.94 42.552C162.348 42.552 163.5 42.984 164.396 43.848C165.324 44.68 165.788 45.736 165.788 47.016C165.788 48.264 165.324 49.32 164.396 50.184C163.5 51.016 162.348 51.432 160.94 51.432ZM165.02 54.216V81H156.812V54.216H165.02ZM187.288 53.928C190.424 53.928 192.92 54.952 194.776 57C196.664 59.016 197.608 61.8 197.608 65.352V81H189.448V66.456C189.448 64.664 188.984 63.272 188.056 62.28C187.128 61.288 185.88 60.792 184.312 60.792C182.744 60.792 181.496 61.288 180.568 62.28C179.64 63.272 179.176 64.664 179.176 66.456V81H170.968V54.216H179.176V57.768C180.008 56.584 181.128 55.656 182.536 54.984C183.944 54.28 185.528 53.928 187.288 53.928ZM213.488 53.832C215.376 53.832 217.024 54.216 218.432 54.984C219.872 55.752 220.976 56.76 221.744 58.008V54.216H229.952V80.952C229.952 83.416 229.456 85.64 228.464 87.624C227.504 89.64 226.016 91.24 224 92.424C222.016 93.608 219.536 94.2 216.56 94.2C212.592 94.2 209.376 93.256 206.912 91.368C204.448 89.512 203.04 86.984 202.688 83.784H210.8C211.056 84.808 211.664 85.608 212.624 86.184C213.584 86.792 214.768 87.096 216.176 87.096C217.872 87.096 219.216 86.6 220.208 85.608C221.232 84.648 221.744 83.096 221.744 80.952V77.16C220.944 78.408 219.84 79.432 218.432 80.232C217.024 81 215.376 81.384 213.488 81.384C211.28 81.384 209.28 80.824 207.488 79.704C205.696 78.552 204.272 76.936 203.216 74.856C202.192 72.744 201.68 70.312 201.68 67.56C201.68 64.808 202.192 62.392 203.216 60.312C204.272 58.232 205.696 56.632 207.488 55.512C209.28 54.392 211.28 53.832 213.488 53.832ZM221.744 67.608C221.744 65.56 221.168 63.944 220.016 62.76C218.896 61.576 217.52 60.984 215.888 60.984C214.256 60.984 212.864 61.576 211.712 62.76C210.592 63.912 210.032 65.512 210.032 67.56C210.032 69.608 210.592 71.24 211.712 72.456C212.864 73.64 214.256 74.232 215.888 74.232C217.52 74.232 218.896 73.64 220.016 72.456C221.168 71.272 221.744 69.656 221.744 67.608ZM260.99 74.04V81H256.814C253.838 81 251.518 80.28 249.854 78.84C248.19 77.368 247.358 74.984 247.358 71.688V61.032H244.094V54.216H247.358V47.688H255.566V54.216H260.942V61.032H255.566V71.784C255.566 72.584 255.758 73.16 256.142 73.512C256.526 73.864 257.166 74.04 258.062 74.04H260.99ZM277.754 81.384C275.13 81.384 272.762 80.824 270.65 79.704C268.57 78.584 266.922 76.984 265.706 74.904C264.522 72.824 263.93 70.392 263.93 67.608C263.93 64.856 264.538 62.44 265.754 60.36C266.97 58.248 268.634 56.632 270.746 55.512C272.858 54.392 275.226 53.832 277.85 53.832C280.474 53.832 282.842 54.392 284.954 55.512C287.066 56.632 288.73 58.248 289.946 60.36C291.162 62.44 291.77 64.856 291.77 67.608C291.77 70.36 291.146 72.792 289.898 74.904C288.682 76.984 287.002 78.584 284.858 79.704C282.746 80.824 280.378 81.384 277.754 81.384ZM277.754 74.28C279.322 74.28 280.65 73.704 281.738 72.552C282.858 71.4 283.418 69.752 283.418 67.608C283.418 65.464 282.874 63.816 281.786 62.664C280.73 61.512 279.418 60.936 277.85 60.936C276.25 60.936 274.922 61.512 273.866 62.664C272.81 63.784 272.282 65.432 272.282 67.608C272.282 69.752 272.794 71.4 273.818 72.552C274.874 73.704 276.186 74.28 277.754 74.28ZM314.504 58.008C315.272 56.76 316.376 55.752 317.816 54.984C319.256 54.216 320.904 53.832 322.76 53.832C324.968 53.832 326.968 54.392 328.76 55.512C330.552 56.632 331.96 58.232 332.984 60.312C334.04 62.392 334.568 64.808 334.568 67.56C334.568 70.312 334.04 72.744 332.984 74.856C331.96 76.936 330.552 78.552 328.76 79.704C326.968 80.824 324.968 81.384 322.76 81.384C320.872 81.384 319.224 81.016 317.816 80.28C316.408 79.512 315.304 78.504 314.504 77.256V81H306.296V45.48H314.504V58.008ZM326.216 67.56C326.216 65.512 325.64 63.912 324.488 62.76C323.368 61.576 321.976 60.984 320.312 60.984C318.68 60.984 317.288 61.576 316.136 62.76C315.016 63.944 314.456 65.56 314.456 67.608C314.456 69.656 315.016 71.272 316.136 72.456C317.288 73.64 318.68 74.232 320.312 74.232C321.944 74.232 323.336 73.64 324.488 72.456C325.64 71.24 326.216 69.608 326.216 67.56ZM364.122 67.176C364.122 67.944 364.074 68.744 363.978 69.576H345.402C345.53 71.24 346.058 72.52 346.986 73.416C347.946 74.28 349.114 74.712 350.49 74.712C352.538 74.712 353.962 73.848 354.762 72.12H363.498C363.05 73.88 362.234 75.464 361.05 76.872C359.898 78.28 358.442 79.384 356.682 80.184C354.922 80.984 352.954 81.384 350.778 81.384C348.154 81.384 345.818 80.824 343.77 79.704C341.722 78.584 340.122 76.984 338.97 74.904C337.818 72.824 337.242 70.392 337.242 67.608C337.242 64.824 337.802 62.392 338.922 60.312C340.074 58.232 341.674 56.632 343.722 55.512C345.77 54.392 348.122 53.832 350.778 53.832C353.37 53.832 355.674 54.376 357.69 55.464C359.706 56.552 361.274 58.104 362.394 60.12C363.546 62.136 364.122 64.488 364.122 67.176ZM355.722 65.016C355.722 63.608 355.242 62.488 354.282 61.656C353.322 60.824 352.122 60.408 350.682 60.408C349.306 60.408 348.138 60.808 347.178 61.608C346.25 62.408 345.674 63.544 345.45 65.016H355.722ZM395.088 53.928C398.16 53.928 400.624 54.952 402.48 57C404.336 59.016 405.264 61.8 405.264 65.352V81H397.104V66.456C397.104 64.664 396.64 63.272 395.712 62.28C394.784 61.288 393.536 60.792 391.968 60.792C390.4 60.792 389.152 61.288 388.224 62.28C387.296 63.272 386.832 64.664 386.832 66.456V81H378.624V45.48H386.832V57.816C387.664 56.632 388.8 55.688 390.24 54.984C391.68 54.28 393.296 53.928 395.088 53.928ZM415.096 51.432C413.656 51.432 412.472 51.016 411.544 50.184C410.648 49.32 410.2 48.264 410.2 47.016C410.2 45.736 410.648 44.68 411.544 43.848C412.472 42.984 413.656 42.552 415.096 42.552C416.504 42.552 417.656 42.984 418.552 43.848C419.48 44.68 419.944 45.736 419.944 47.016C419.944 48.264 419.48 49.32 418.552 50.184C417.656 51.016 416.504 51.432 415.096 51.432ZM419.176 54.216V81H410.968V54.216H419.176ZM433.332 58.68C434.292 57.208 435.492 56.056 436.932 55.224C438.372 54.36 439.972 53.928 441.732 53.928V62.616H439.476C437.428 62.616 435.892 63.064 434.868 63.96C433.844 64.824 433.332 66.36 433.332 68.568V81H425.124V54.216H433.332V58.68ZM470.904 67.176C470.904 67.944 470.856 68.744 470.76 69.576H452.184C452.312 71.24 452.84 72.52 453.768 73.416C454.728 74.28 455.896 74.712 457.272 74.712C459.32 74.712 460.744 73.848 461.544 72.12H470.28C469.832 73.88 469.016 75.464 467.832 76.872C466.68 78.28 465.224 79.384 463.464 80.184C461.704 80.984 459.736 81.384 457.56 81.384C454.936 81.384 452.6 80.824 450.552 79.704C448.504 78.584 446.904 76.984 445.752 74.904C444.6 72.824 444.024 70.392 444.024 67.608C444.024 64.824 444.584 62.392 445.704 60.312C446.856 58.232 448.456 56.632 450.504 55.512C452.552 54.392 454.904 53.832 457.56 53.832C460.152 53.832 462.456 54.376 464.472 55.464C466.488 56.552 468.056 58.104 469.176 60.12C470.328 62.136 470.904 64.488 470.904 67.176ZM462.504 65.016C462.504 63.608 462.024 62.488 461.064 61.656C460.104 60.824 458.904 60.408 457.464 60.408C456.088 60.408 454.92 60.808 453.96 61.608C453.032 62.408 452.456 63.544 452.232 65.016H462.504ZM473.602 67.56C473.602 64.808 474.114 62.392 475.138 60.312C476.194 58.232 477.618 56.632 479.41 55.512C481.202 54.392 483.202 53.832 485.41 53.832C487.17 53.832 488.77 54.2 490.21 54.936C491.682 55.672 492.834 56.664 493.666 57.912V45.48H501.874V81H493.666V77.16C492.898 78.44 491.794 79.464 490.354 80.232C488.946 81 487.298 81.384 485.41 81.384C483.202 81.384 481.202 80.824 479.41 79.704C477.618 78.552 476.194 76.936 475.138 74.856C474.114 72.744 473.602 70.312 473.602 67.56ZM493.666 67.608C493.666 65.56 493.09 63.944 491.938 62.76C490.818 61.576 489.442 60.984 487.81 60.984C486.178 60.984 484.786 61.576 483.634 62.76C482.514 63.912 481.954 65.512 481.954 67.56C481.954 69.608 482.514 71.24 483.634 72.456C484.786 73.64 486.178 74.232 487.81 74.232C489.442 74.232 490.818 73.64 491.938 72.456C493.09 71.272 493.666 69.656 493.666 67.608Z" fill="white"/>
</svg>
